# xmcd CD database file generated by OrangeCD 6.4
#
# Track frame offsets:
#	150
#	1800
#	47166
#	87168
#	140400
#	169277
#	188147
#
# Disc length: 2771 seconds
#
# Revision: 0
# Processed by: cddbd v1.5.2PL0 Copyright (c) Steve Scherf et al.
# Submitted via: OrangeCD 6.4
#
DISCID=530ad107
DTITLE=Johnny Winter - Live Bootleg Series Volume 7
DYEAR=2011
DGENRE=
TTITLE0=Introduction
TTITLE1=Don't Take Advantage Of Me
TTITLE2=Mean Mistreater
TTITLE3=Blues Jam
TTITLE4=Shame, Shame, Shame
TTITLE5=Kiss Tomorrow Goodbye
TTITLE6=Leland, Mississippi Blues
EXTD=
EXTT0=
EXTT1=
EXTT2=
EXTT3=
EXTT4=
EXTT5=
EXTT6=
PLAYORDER=
